<svg width="28" height="24" viewBox="0 0 28 24" fill="none" xmlns="http://www.w3.org/2000/svg">
<path d="M20.5315 15.4778H19.2341L18.7742 15.0979C19.8006 14.0765 20.5507 12.8733 20.9709 11.5745C21.3911 10.2758 21.471 8.91346 21.2049 7.58515C20.433 3.674 16.6228 0.550711 12.0242 0.0723698C10.4075 -0.102836 8.76549 0.041097 7.22373 0.493154C5.68197 0.945211 4.28137 1.69341 3.12909 2.6805C1.97681 3.66759 1.10339 4.86741 0.575684 6.18814C0.0479746 7.50888 -0.120046 8.91552 0.0844809 10.3004C0.642873 14.2397 4.28885 17.5037 8.85453 18.1649C10.4051 18.3929 11.9954 18.3245 13.5115 17.9645C15.0277 17.6046 16.4322 16.962 17.6246 16.0827L18.068 16.4767V17.5881L25.0479 23.5674C25.7213 24.1442 26.8216 24.1442 27.495 23.5674C28.1683 22.9906 28.1683 22.0479 27.495 21.4711L20.5315 15.4778ZM10.6775 15.4778C6.58811 15.4778 3.28703 12.6499 3.28703 9.14679C3.28703 5.64364 6.58811 2.8158 10.6775 2.8158C14.7669 2.8158 18.068 5.64364 18.068 9.14679C18.068 12.6499 14.7669 15.4778 10.6775 15.4778Z" fill="black"/>
</svg>
